<svg width="67" height="67" viewBox="0 0 67 67" fill="none" xmlns="http://www.w3.org/2000/svg">
<path d="M50 40V50H40V56.6667H50V66.6667H56.6667V56.6667H66.6667V50H56.6667V40H50ZM34.3333 60H6.66667C3 60 0 57 0 53.3333V6.66667C0 3 3 0 6.66667 0H53.3333C57 0 60 3 60 6.66667V34.3333C58 33.6667 55.6667 33.3333 53.3333 33.3333C49.6667 33.3333 46 34.3333 43 36.3333L38.3333 30L26.6667 45L18.3333 35L6.66667 50H33.6667C33.3333 51 33.3333 52.3333 33.3333 53.3333C33.3333 55.6667 33.6667 58 34.3333 60Z" fill="#C1C7CE"/>
</svg>
