<svg width="16" height="24" viewBox="0 0 16 24" fill="none" xmlns="http://www.w3.org/2000/svg">
<g clip-path="url(#clip0_57024_1096)">
<path d="M14.375 0.5H0.958333C0.704168 0.5 0.460412 0.600967 0.28069 0.780689C0.100967 0.960412 0 1.20417 0 1.45833V22.5417C0.00094442 22.7309 0.0578717 22.9156 0.163608 23.0724C0.269344 23.2293 0.419157 23.3514 0.594167 23.4233C0.768689 23.4967 0.96104 23.5168 1.14695 23.481C1.33285 23.4451 1.50399 23.3551 1.63875 23.2221L7.66667 17.1846L13.6946 23.2221C13.7841 23.3109 13.8903 23.3812 14.0071 23.4289C14.1238 23.4766 14.2489 23.5007 14.375 23.5C14.5007 23.5032 14.6254 23.477 14.7392 23.4233C14.9142 23.3514 15.064 23.2293 15.1697 23.0724C15.2755 22.9156 15.3324 22.7309 15.3333 22.5417V1.45833C15.3333 1.20417 15.2324 0.960412 15.0526 0.780689C14.8729 0.600967 14.6292 0.5 14.375 0.5Z" fill="#D48D09"/>
<path d="M14.375 23.5C14.5007 23.5032 14.6255 23.477 14.7392 23.4233C14.9142 23.3514 15.064 23.2293 15.1697 23.0724C15.2755 22.9156 15.3324 22.7309 15.3334 22.5417V1.45833C15.3334 1.20417 15.2324 0.960412 15.0527 0.780689C14.8729 0.600967 14.6292 0.5 14.375 0.5H7.66669V17.1846L13.6946 23.2221C13.7842 23.3109 13.8903 23.3812 14.0071 23.4289C14.1239 23.4766 14.2489 23.5007 14.375 23.5Z" fill="#C6A700"/>
</g>
<defs>
<clipPath id="clip0_57024_1096">
<rect width="15.3333" height="23" fill="white" transform="translate(0 0.5)"/>
</clipPath>
</defs>
</svg>
