<svg width="22" height="20" viewBox="0 0 22 20" fill="none" xmlns="http://www.w3.org/2000/svg">
<path d="M10.8333 0.25C4.875 0.25 0 4.12833 0 8.91667C0.0541667 11.2458 1.14833 13.4342 2.97917 14.875C2.97917 15.525 2.52417 17.2258 0 19.75C2.5675 19.6308 5.02667 18.6667 7.00917 17.0417C8.24417 17.3992 9.54417 17.5833 10.8333 17.5833C16.7917 17.5833 21.6667 13.705 21.6667 8.91667C21.6667 4.12833 16.7917 0.25 10.8333 0.25ZM10.8333 15.4167C6.045 15.4167 2.16667 12.5025 2.16667 8.91667C2.16667 5.33083 6.045 2.41667 10.8333 2.41667C15.6217 2.41667 19.5 5.33083 19.5 8.91667C19.5 12.5025 15.6217 15.4167 10.8333 15.4167Z" fill="#C1C1C1"/>
</svg>
