<svg width="21" height="19" viewBox="0 0 21 19" fill="none" xmlns="http://www.w3.org/2000/svg">
<path d="M14.1842 16C11.5526 16 9.25789 14.58 8.12105 12.5H14.1842L15.2368 10.5H7.42632C7.37368 10.17 7.34211 9.84 7.34211 9.5C7.34211 9.16 7.37368 8.83 7.42632 8.5H14.1842L15.2368 6.5H8.12105C9.25789 4.42 11.5526 3 14.1842 3C15.8789 3 17.4368 3.59 18.6368 4.57L20.5 2.8C18.8263 1.37 16.6053 0.5 14.1842 0.5C10.0579 0.5 6.56316 3 5.23684 6.5H1.55263L0.5 8.5H4.77368C4.71053 8.83 4.71053 9.16 4.71053 9.5C4.71053 9.84 4.71053 10.17 4.77368 10.5H1.55263L0.5 12.5H5.23684C6.56316 16 10.0579 18.5 14.1842 18.5C16.6158 18.5 18.8263 17.63 20.5 16.2L18.6263 14.43C17.4368 15.41 15.8895 16 14.1842 16Z" fill="#C6A700"/>
</svg>
