<svg width="10" height="12" viewBox="0 0 10 12" fill="none" xmlns="http://www.w3.org/2000/svg">
<path d="M8.125 4.2V3C8.125 1.32 6.75 0 5 0C3.25 0 1.875 1.32 1.875 3V4.2C0.8125 4.2 0 4.98 0 6V10.2C0 11.22 0.8125 12 1.875 12H8.125C9.1875 12 10 11.22 10 10.2V6C10 4.98 9.1875 4.2 8.125 4.2ZM3.125 3C3.125 1.98 3.9375 1.2 5 1.2C6.0625 1.2 6.875 1.98 6.875 3V4.2H3.125V3ZM5.6875 8.1L5.625 8.16V9C5.625 9.36 5.375 9.6 5 9.6C4.625 9.6 4.375 9.36 4.375 9V8.16C4 7.8 3.9375 7.26 4.3125 6.9C4.6875 6.54 5.25 6.48 5.625 6.84C6 7.14 6.0625 7.74 5.6875 8.1Z" fill="#C6A700"/>
</svg>
