<svg width="15" height="16" viewBox="0 0 15 16" fill="none" xmlns="http://www.w3.org/2000/svg">
<path fill-rule="evenodd" clip-rule="evenodd" d="M9.74957 9.26429L14.5 14.0147L13.2647 15.25L8.51429 10.4996C7.62722 11.1379 6.55775 11.5276 5.38879 11.5276C2.41252 11.5276 0 9.11507 0 6.13879C0 3.16252 2.41252 0.75 5.38879 0.75C8.36507 0.75 10.7776 3.16252 10.7776 6.13879C10.7776 7.30775 10.3879 8.37722 9.74957 9.26429ZM5.38879 2.40809C3.32447 2.40809 1.65809 4.07447 1.65809 6.13879C1.65809 8.20312 3.32447 9.8695 5.38879 9.8695C7.45312 9.8695 9.1195 8.20312 9.1195 6.13879C9.1195 4.07447 7.45312 2.40809 5.38879 2.40809Z" fill="#C1C7CE"/>
</svg>
