<svg width="22" height="20" viewBox="0 0 22 20" fill="none" xmlns="http://www.w3.org/2000/svg">
<path d="M16.4386 18.7002C15.7849 19.1658 11.5905 16.2143 10.7872 16.2078C9.98386 16.2014 5.74226 19.085 5.09619 18.6089C4.45013 18.1328 5.969 13.243 5.72695 12.4792C5.4849 11.7154 1.42382 8.58393 1.67821 7.82411C1.93266 7.06429 7.06574 6.99372 7.71944 6.5281C8.37313 6.06255 10.1049 1.24358 10.9083 1.25001C11.7115 1.25649 13.365 6.1027 14.0111 6.57877C14.6572 7.05478 19.7885 7.20801 20.0306 7.9718C20.2727 8.73559 16.1615 11.8013 15.9071 12.5612C15.6527 13.321 17.0923 18.2346 16.4386 18.7002Z" fill="#C6A700" stroke="#C6A700" stroke-width="2"/>
</svg>
