<svg width="19" height="16" viewBox="0 0 19 16" fill="none" xmlns="http://www.w3.org/2000/svg">
<path d="M8.07943 15.2806L8.07942 15.2806L8.07674 15.2833C7.79553 15.5694 7.33738 15.5742 7.04369 15.287C6.86856 15.1109 6.79351 14.8617 6.84319 14.6108C6.8433 14.6103 6.8434 14.6098 6.8435 14.6093L7.62695 10.8323L7.75172 10.2308H7.13737H2.47367C1.05863 10.2308 0.102998 8.78258 0.663181 7.47768L0.663332 7.47733L3.35424 1.19578L3.35425 1.19578L3.35486 1.19433C3.53254 0.775926 3.94599 0.500122 4.40518 0.500122H11.8258C12.4577 0.500122 12.9767 1.01915 12.9767 1.65099V9.89707C12.9767 10.2036 12.8548 10.4969 12.6444 10.7074L12.6441 10.7077L8.07943 15.2806ZM15.6358 1.65099C15.6358 1.01915 16.1548 0.500122 16.7867 0.500122C17.4185 0.500122 17.9375 1.01915 17.9375 1.65099V8.25446C17.9375 8.88629 17.4185 9.40532 16.7867 9.40532C16.1548 9.40532 15.6358 8.88629 15.6358 8.25446V1.65099Z" stroke="#8B9198"/>
</svg>
