<svg width="19" height="16" viewBox="0 0 19 16" fill="none" xmlns="http://www.w3.org/2000/svg">
<path d="M10.3578 0.719968L10.3578 0.719981L10.3608 0.716933C10.642 0.430875 11.1002 0.426078 11.3939 0.713239C11.569 0.889346 11.644 1.13852 11.5944 1.38941C11.5943 1.38992 11.5942 1.39043 11.5941 1.39095L10.8106 5.16794L10.6858 5.76949H11.3002H15.9639C17.3782 5.76949 18.3355 7.21753 17.7822 8.52358C17.7821 8.5239 17.7819 8.52421 17.7818 8.52453L15.0932 14.8006C15.093 14.8012 15.0927 14.8018 15.0925 14.8024C14.9061 15.2255 14.4899 15.5001 14.0324 15.5001H6.60347C5.97163 15.5001 5.4526 14.9811 5.4526 14.3493V6.10318C5.4526 5.7966 5.57446 5.50331 5.7849 5.29287L10.3578 0.719968ZM2.80173 14.3493C2.80173 14.9811 2.2827 15.5001 1.65087 15.5001C1.01903 15.5001 0.5 14.9811 0.5 14.3493V7.74579C0.5 7.11395 1.01903 6.59492 1.65087 6.59492C2.2827 6.59492 2.80173 7.11395 2.80173 7.74579V14.3493Z" fill="#43AA32" stroke="#43AA32"/>
</svg>
