<svg width="21" height="19" viewBox="0 0 21 19" fill="none" xmlns="http://www.w3.org/2000/svg">
<path d="M19.25 8H13.625C13.1083 8 12.6667 8.285 12.475 8.6825L10.5917 12.65C10.5333 12.7775 10.5 12.92 10.5 13.0625V14C10.5 14.1989 10.5878 14.3897 10.7441 14.5303C10.9004 14.671 11.1123 14.75 11.3333 14.75H15.65L15.0833 17.135V17.315C15.0833 17.5475 15.1917 17.75 15.3583 17.915L16.0167 18.5L20.1333 14.795C20.3583 14.5925 20.5 14.3075 20.5 14V9.125C20.5 8.82663 20.3683 8.54048 20.1339 8.32951C19.8995 8.11853 19.5815 8 19.25 8ZM10.5 5C10.5 4.80109 10.4122 4.61032 10.2559 4.46967C10.0996 4.32902 9.88768 4.25 9.66667 4.25H5.35L5.91667 1.865V1.6925C5.91667 1.46 5.80833 1.25 5.64167 1.0925L4.98333 0.5L0.866667 4.205C0.641667 4.4075 0.5 4.6925 0.5 5V9.875C0.5 10.1734 0.631696 10.4595 0.866117 10.6705C1.10054 10.8815 1.41848 11 1.75 11H7.375C7.89167 11 8.33333 10.715 8.525 10.3175L10.4083 6.35C10.4667 6.2225 10.5 6.08 10.5 5.9375V5Z" fill="#869F25" />
</svg>
